<svg width="40" height="40" viewBox="0 0 40 40" fill="none" xmlns="http://www.w3.org/2000/svg">
<path d="M8.86485 24.1726L7.4725 29.3704L2.38352 29.478C0.862657 26.6572 0 23.4297 0 20.0001C0 16.6836 0.806563 13.5561 2.23625 10.8022H2.23734L6.76797 11.6329L8.75266 16.1363C8.33727 17.3473 8.11086 18.6473 8.11086 20.0001C8.11102 21.4682 8.37696 22.8748 8.86485 24.1726Z" fill="#FBBB00"/>
<path d="M39.6506 16.2637C39.8802 17.4735 40 18.723 40 19.9999C40 21.4318 39.8495 22.8285 39.5627 24.1758C38.5891 28.7604 36.0451 32.7637 32.5209 35.5966L32.5199 35.5955L26.8133 35.3044L26.0056 30.2626C28.3441 28.8912 30.1716 26.745 31.1342 24.1758H20.4397V16.2637H31.2902H39.6506Z" fill="#518EF8"/>
<path d="M32.5198 35.5959L32.5209 35.597C29.0935 38.3519 24.7396 40.0003 20 40.0003C12.3835 40.0003 5.76159 35.7432 2.38354 29.4783L8.86487 24.1729C10.5539 28.6805 14.9022 31.8893 20 31.8893C22.1912 31.8893 24.244 31.297 26.0055 30.2629L32.5198 35.5959Z" fill="#28B446"/>
<path d="M32.7659 4.60438L26.2868 9.90875C24.4637 8.76922 22.3087 8.11094 20 8.11094C14.7868 8.11094 10.3571 11.467 8.75269 16.1363L2.2373 10.8022H2.23621C5.5648 4.38461 12.2703 0 20 0C24.8527 0 29.3021 1.72859 32.7659 4.60438Z" fill="#F14336"/>
</svg>
