<svg width="29" height="42" viewBox="0 0 29 42" fill="none" xmlns="http://www.w3.org/2000/svg">
<path d="M28.6931 7.67748C28.6562 7.60433 28.6128 7.53463 28.5636 7.46919C28.1426 6.87549 27.5317 6.44408 26.8323 6.24664C26.1829 6.06864 25.5002 6.05 24.8421 6.1923C24.4074 6.27804 23.9819 6.40541 23.5715 6.57265C23.9279 5.62534 23.9712 4.58822 23.6949 3.61436C23.6003 3.32085 23.4644 3.04235 23.2914 2.78725C23.0326 2.39166 22.6825 2.06445 22.2707 1.83335C21.5516 1.49739 20.731 1.45199 19.9794 1.70657C19.2967 1.93315 18.6838 2.33239 18.1999 2.86573C17.9991 3.07408 17.8139 3.29706 17.6459 3.53286C17.4712 2.74406 17.1337 2.00064 16.6553 1.35037C16.4665 1.10577 16.2481 0.885728 16.005 0.695316C15.3833 0.191085 14.592 -0.054247 13.7949 0.0100798C13.299 0.0984126 12.8312 0.303817 12.4302 0.609313C12.0291 0.914808 11.7064 1.31162 11.4886 1.76694C10.2059 4.26036 11.2597 8.6344 14.632 14.7653C14.669 14.8373 14.7227 14.8995 14.7885 14.9464C14.8172 14.9686 14.8474 14.9888 14.8789 15.0068L15.9086 15.5351C15.9906 15.5806 16.0828 15.6044 16.1766 15.6045H16.2489C16.6674 15.5502 17.0769 15.4958 17.4743 15.4385C23.6708 14.554 27.4104 12.9118 28.6148 10.5603C28.8536 10.12 28.9852 9.62932 28.9988 9.12831C29.0124 8.6273 28.9076 8.13016 28.6931 7.67748V7.67748ZM27.573 10.0683C26.9708 11.2516 24.6825 13.3888 16.4024 14.4242L16.288 14.4393L15.5503 14.062C11.4976 6.63604 11.877 3.52078 12.4792 2.32238C12.6096 2.02558 12.8088 1.76424 13.0602 1.56003C13.3115 1.35581 13.6078 1.21461 13.9244 1.14812C14.2545 1.12373 14.5851 1.18835 14.8819 1.33527C15.039 1.40979 15.1866 1.50304 15.3215 1.61299C16.1104 2.24691 16.6072 3.49362 16.7637 5.23538C16.7733 5.36069 16.8239 5.47931 16.9076 5.57285C16.9913 5.66638 17.1035 5.72958 17.2267 5.75263C17.3499 5.77569 17.4773 5.75731 17.5891 5.70035C17.7008 5.64339 17.7906 5.55104 17.8447 5.43763C18.0732 4.96346 18.3486 4.51344 18.6666 4.09433C19.0744 3.51137 19.6455 3.06279 20.3076 2.80536C20.7697 2.64374 21.2746 2.65553 21.7288 2.83857C21.7288 2.83857 21.7498 2.83857 21.7498 2.83857C22.1777 3.09351 22.4907 3.50458 22.623 3.98566C22.906 4.89126 22.6652 6.09872 21.9275 7.50844C21.8642 7.6182 21.8391 7.74599 21.8563 7.87162C21.8735 7.99725 21.9319 8.11356 22.0224 8.20218C22.1128 8.2908 22.2302 8.34668 22.3558 8.36099C22.4815 8.3753 22.6084 8.34723 22.7163 8.28121C23.2645 7.9488 23.8483 7.67944 24.4567 7.47825C25.1056 7.23636 25.8108 7.18916 26.486 7.34241V7.34241C26.984 7.46275 27.4158 7.7723 27.6904 8.20575C27.8188 8.50347 27.8751 8.82743 27.8547 9.15113C27.8343 9.47484 27.7377 9.78911 27.573 10.0683V10.0683Z" fill="#534F70"/>
<path d="M16.3936 14.4242L16.2792 14.4393L15.5506 14.0619C11.4978 6.63602 11.8772 3.52076 12.4794 2.32235C12.6099 2.02556 12.8091 1.76422 13.0604 1.56001C13.3117 1.35579 13.608 1.21459 13.9247 1.14809C14.2548 1.12371 14.5854 1.18833 14.8821 1.33525C13.6175 1.93295 11.0613 4.41429 16.3936 14.4242Z" fill="white"/>
<path d="M27.5731 10.0682C26.9709 11.2515 24.6826 13.3887 16.4025 14.4241C11.0611 4.41424 13.6174 1.9329 14.888 1.33521C15.0451 1.40972 15.1927 1.50297 15.3276 1.61292C16.1165 2.24684 16.6133 3.49355 16.7698 5.23532C16.7794 5.36062 16.83 5.47925 16.9137 5.57278C16.9974 5.66631 17.1096 5.72951 17.2328 5.75256C17.3561 5.77562 17.4834 5.75724 17.5952 5.70028C17.7069 5.64332 17.7968 5.55097 17.8508 5.43757C18.0793 4.96339 18.3547 4.51337 18.6728 4.09426C19.0789 3.51224 19.6478 3.06374 20.3077 2.80529C20.7698 2.64367 21.2747 2.65547 21.7289 2.8385C21.7289 2.8385 21.7499 2.8385 21.7499 2.8385C22.1778 3.09345 22.4908 3.50451 22.6231 3.98559C22.9061 4.89119 22.6653 6.09865 21.9276 7.50837C21.8643 7.61813 21.8392 7.74592 21.8564 7.87155C21.8736 7.99718 21.932 8.11349 22.0225 8.20211C22.1129 8.29073 22.2303 8.34661 22.3559 8.36092C22.4816 8.37524 22.6085 8.34717 22.7165 8.28115C23.2646 7.94873 23.8484 7.67937 24.4568 7.47818C25.1057 7.2363 25.8109 7.1891 26.4861 7.34234V7.34234C26.9841 7.46268 27.4159 7.77223 27.6905 8.20568C27.8189 8.50341 27.8752 8.82736 27.8548 9.15107C27.8344 9.47477 27.7378 9.78904 27.5731 10.0682V10.0682Z" fill="#4DDB6C"/>
<path d="M5.51211 40.8072C4.98534 41.1656 4.42339 41.4691 3.83501 41.7128L3.72963 41.6645C3.39925 41.4584 3.15844 41.135 3.05518 40.7589C1.24862 35.929 6.63519 15.1214 9.84786 13.1593C10.3312 12.8657 10.856 12.6469 11.4045 12.5103C14.6021 11.6952 18.0828 13.5698 18.0828 13.5698C18.0828 13.5698 18.1761 13.6151 18.3417 13.7056C19.8652 14.8225 21.9277 16.8269 22.1415 19.6071C22.4456 23.3895 11.3473 36.9131 5.51211 40.8072Z" fill="#FF9A00"/>
<path d="M22.1534 19.6344C21.9396 16.8542 19.8771 14.8498 18.3536 13.7329C17.838 13.3525 17.2933 13.0134 16.7247 12.7186C16.5229 12.6069 11.6633 10.0411 7.9237 12.3262C4.71705 14.2853 0.251831 31.214 0.510771 38.2384C0.583034 40.2277 1.01962 41.3989 1.8416 41.8216C2.08523 41.9441 2.35496 42.0052 2.62746 41.9997C3.04689 41.9855 3.46019 41.8945 3.84689 41.731C4.43526 41.4873 4.99722 41.1838 5.52398 40.8254C11.3471 36.9132 22.4454 23.3896 22.1534 19.6344ZM15.2523 29.4209C11.6181 33.9791 7.54733 38.0724 4.87964 39.8413C4.32369 40.245 3.70799 40.5588 3.05501 40.7711C2.82884 40.856 2.57963 40.856 2.35346 40.7711C2.20593 40.6956 1.71816 40.282 1.64288 38.166C1.52546 34.9541 2.45885 29.2488 4.02453 23.6311C5.79195 17.2919 7.55034 13.8597 8.50782 13.2741C9.38608 12.7598 10.3873 12.4948 11.4043 12.5073H11.4766C13.9094 12.5073 16.1466 13.6876 16.1917 13.7148C16.2369 13.742 20.7262 15.9758 21.0092 19.7038C21.1026 20.8419 19.3532 24.2771 15.2523 29.4209Z" fill="#534F70"/>
<path d="M11.4044 12.5313C10.8559 12.6679 10.3312 12.8867 9.84778 13.1803C6.63511 15.1425 1.26058 35.9471 3.0551 40.78C2.82893 40.8649 2.57972 40.8649 2.35355 40.78C2.20602 40.7045 1.71825 40.2909 1.64297 38.1749C1.52555 34.963 2.45894 29.2577 4.02462 23.64C5.79204 17.3008 7.55043 13.8686 8.50791 13.283C9.38767 12.774 10.3888 12.5142 11.4044 12.5313V12.5313Z" fill="white"/>
<path d="M18.6729 25.7411C18.582 25.7401 18.4924 25.7184 18.411 25.6778L13.9849 23.4017C13.915 23.3692 13.8523 23.323 13.8007 23.2657C13.749 23.2084 13.7095 23.1412 13.6843 23.0682C13.6592 22.9952 13.6491 22.9178 13.6545 22.8408C13.6599 22.7637 13.6808 22.6886 13.7159 22.6198C13.751 22.5511 13.7996 22.4902 13.8588 22.4407C13.9179 22.3912 13.9864 22.3542 14.0602 22.332C14.134 22.3097 14.2115 22.3026 14.288 22.3111C14.3646 22.3196 14.4387 22.3435 14.5058 22.3814L18.9409 24.6574C19.0551 24.7163 19.1462 24.8119 19.1997 24.9289C19.2531 25.0459 19.2657 25.1776 19.2355 25.3027C19.2052 25.4278 19.1339 25.539 19.033 25.6186C18.932 25.6981 18.8073 25.7413 18.679 25.7411H18.6729Z" fill="#534F70"/>
<path d="M8.75485 24.9472C8.66478 24.9467 8.57608 24.925 8.49591 24.8838L3.88617 22.5172C3.75738 22.4445 3.66164 22.3247 3.61903 22.1828C3.57641 22.0409 3.59022 21.888 3.65756 21.7561C3.7249 21.6242 3.84054 21.5235 3.98026 21.4752C4.11998 21.4269 4.27293 21.4347 4.40706 21.4969L9.0168 23.8635C9.13099 23.9223 9.22213 24.0179 9.27556 24.135C9.32899 24.252 9.34159 24.3837 9.31136 24.5087C9.28112 24.6338 9.2098 24.7451 9.10886 24.8246C9.00792 24.9041 8.88323 24.9473 8.75485 24.9472Z" fill="#534F70"/>
<path d="M13.7589 32.6931C13.6678 32.6929 13.578 32.6712 13.4969 32.6297L9.16717 30.3989C9.03838 30.3262 8.94265 30.2064 8.90003 30.0645C8.85741 29.9226 8.87122 29.7697 8.93856 29.6378C9.0059 29.5059 9.12155 29.4052 9.26127 29.3569C9.40098 29.3086 9.55394 29.3164 9.68807 29.3786L14.0329 31.6094C14.1468 31.6681 14.2378 31.7634 14.2913 31.8802C14.3448 31.9969 14.3576 32.1282 14.3278 32.2532C14.2979 32.3781 14.2271 32.4893 14.1267 32.5691C14.0263 32.6489 13.902 32.6925 13.7739 32.6931H13.7589Z" fill="#534F70"/>
<path d="M5.72881 33.478C5.63892 33.4789 5.55013 33.4582 5.46986 33.4176L1.58877 31.4253C1.45341 31.3561 1.35104 31.2358 1.30418 31.0908C1.25731 30.9459 1.26979 30.7883 1.33886 30.6526C1.40793 30.5169 1.52795 30.4142 1.6725 30.3672C1.81706 30.3202 1.97431 30.3328 2.10966 30.402L5.99076 32.3943C6.0576 32.4288 6.11702 32.4761 6.16561 32.5336C6.2142 32.5911 6.25101 32.6576 6.27394 32.7294C6.29686 32.8012 6.30546 32.8768 6.29924 32.9519C6.29301 33.027 6.27208 33.1001 6.23765 33.1671C6.19006 33.2612 6.11723 33.3402 6.02734 33.3951C5.93745 33.45 5.83407 33.4788 5.72881 33.478V33.478Z" fill="#534F70"/>
<path d="M12.9611 18.7499C12.871 18.7494 12.7823 18.7276 12.7022 18.6865L6.35208 15.4233C6.28509 15.3894 6.22544 15.3425 6.17658 15.2854C6.12771 15.2283 6.0906 15.1621 6.06737 15.0906C6.04414 15.019 6.03526 14.9436 6.04123 14.8686C6.04721 14.7936 6.06792 14.7205 6.10218 14.6535C6.17167 14.5182 6.2917 14.416 6.43609 14.369C6.58048 14.3221 6.73752 14.3343 6.87298 14.403L13.223 17.6662C13.3372 17.725 13.4284 17.8206 13.4818 17.9376C13.5352 18.0547 13.5478 18.1863 13.5176 18.3114C13.4874 18.4365 13.416 18.5477 13.3151 18.6273C13.2142 18.7068 13.0895 18.75 12.9611 18.7499V18.7499Z" fill="#534F70"/>
<path d="M7.51729 38.966C7.42632 38.9649 7.33676 38.9433 7.25534 38.9026L3.37726 36.9103C3.24846 36.8376 3.15273 36.7177 3.11011 36.5758C3.0675 36.434 3.08131 36.281 3.14864 36.1491C3.21598 36.0172 3.33163 35.9166 3.47135 35.8683C3.61107 35.8199 3.76402 35.8277 3.89815 35.8899L7.77925 37.8823C7.89344 37.9411 7.98458 38.0367 8.038 38.1537C8.09143 38.2708 8.10404 38.4024 8.0738 38.5275C8.04356 38.6526 7.97224 38.7638 7.8713 38.8434C7.77036 38.9229 7.64567 38.9661 7.51729 38.966V38.966Z" fill="#534F70"/>
</svg>
